<?xml version="1.0" encoding="UTF-8" standalone="no"?>
<svg
   xmlns:dc="http://purl.org/dc/elements/1.1/"
   xmlns:cc="http://creativecommons.org/ns#"
   xmlns:rdf="http://www.w3.org/1999/02/22-rdf-syntax-ns#"
   xmlns:svg="http://www.w3.org/2000/svg"
   xmlns="http://www.w3.org/2000/svg"
   xmlns:sodipodi="http://sodipodi.sourceforge.net/DTD/sodipodi-0.dtd"
   xmlns:inkscape="http://www.inkscape.org/namespaces/inkscape"
   data-name="Layer 1"
   id="Layer_1"
   viewBox="0 0 128 128"
   version="1.1"
   sodipodi:docname="iconfinder_b-16_5907823.svg"
   inkscape:version="0.92.5 (2060ec1f9f, 2020-04-08)">
  <metadata
     id="metadata27">
    <rdf:RDF>
      <cc:Work
         rdf:about="">
        <dc:format>image/svg+xml</dc:format>
        <dc:type
           rdf:resource="http://purl.org/dc/dcmitype/StillImage" />
      </cc:Work>
    </rdf:RDF>
  </metadata>
  <sodipodi:namedview
     pagecolor="#ffffff"
     bordercolor="#666666"
     borderopacity="1"
     objecttolerance="10"
     gridtolerance="10"
     guidetolerance="10"
     inkscape:pageopacity="0"
     inkscape:pageshadow="2"
     inkscape:window-width="1848"
     inkscape:window-height="1016"
     id="namedview25"
     showgrid="false"
     inkscape:zoom="1.84375"
     inkscape:cx="-46.644068"
     inkscape:cy="64.542373"
     inkscape:window-x="72"
     inkscape:window-y="27"
     inkscape:window-maximized="1"
     inkscape:current-layer="Layer_1" />
  <defs
     id="defs4">
    <style
       id="style2">.cls-1{fill:#2b77c0;}.cls-2{fill:#3b4551;}</style>
  </defs>
  <title
     id="title6" />
  <path
     class="cls-1"
     d="M64.27438,17.65172a3.96395,3.96395,0,1,0-1.523-.30061A3.99633,3.99633,0,0,0,64.27438,17.65172Z"
     id="path8"
     style="fill:#ff7f2a" />
  <circle
     class="cls-1"
     cx="64.27417"
     cy="114.33616"
     r="3.97082"
     id="circle10"
     style="fill:#88aa00" />
  <path
     class="cls-1"
     d="M105.338,42.28023a4.00788,4.00788,0,1,0-1.01391-1.17558A3.977,3.977,0,0,0,105.338,42.28023Z"
     id="path12"
     style="fill:#88aa00" />
  <circle
     class="cls-1"
     cx="20.26453"
     cy="88.87358"
     r="3.97085"
     transform="matrix(0.86942, -0.49407, 0.49407, 0.86942, -41.26357, 21.61693)"
     id="circle14"
     style="fill:#ff7f2a" />
  <path
     class="cls-1"
     d="M22.22386,35.6898a3.96407,3.96407,0,1,0,1.98244,3.944A3.97366,3.97366,0,0,0,22.22386,35.6898Z"
     id="path16"
     style="fill:#88aa00" />
  <path
     class="cls-2"
     d="M71.79905,55.69642a11.37694,11.37694,0,0,0-15.59139,0,11.38887,11.38887,0,0,0-3.30917,5.72552,11.57807,11.57807,0,0,0,0,5.17155,11.442,11.442,0,0,0,7.8034,8.32665,11.3108,11.3108,0,0,0,6.60283,0,11.44154,11.44154,0,0,0,7.8034-8.32665,11.57807,11.57807,0,0,0,0-5.17155A11.27823,11.27823,0,0,0,71.79905,55.69642Z"
     id="path18" />
  <path
     class="cls-2"
     d="M114.30979,79.1066a11.73706,11.73706,0,0,0-15.46823,2.12391l-8.75765-4.97136a28.65273,28.65273,0,0,0,0-24.51832l8.75765-4.97136a11.75652,11.75652,0,0,0,15.46823,2.13932,11.88742,11.88742,0,0,0,3.84782-15.28354,11.75488,11.75488,0,0,0-21.51709,9.281l-8.72684,4.97136A28.81794,28.81794,0,0,0,66.489,35.28755V25.20627a11.76453,11.76453,0,0,0,9.51181-12.40538A11.89817,11.89817,0,0,0,64.61125,1.91924a11.75074,11.75074,0,0,0-2.55491,23.287V35.27214a28.76515,28.76515,0,0,0-21.9634,12.60547l-8.71143-4.97136a11.73631,11.73631,0,0,0-6.06417-14.37551,11.89366,11.89366,0,0,0-15.16048,4.58667A11.75634,11.75634,0,0,0,29.196,46.76949l8.74224,4.97136a28.542,28.542,0,0,0,0,24.53372L29.196,81.24592a11.75538,11.75538,0,1,0,2.18554,3.84782l8.72684-4.94054a28.76406,28.76406,0,0,0,21.948,12.59007v10.05046a11.76156,11.76156,0,0,0-9.51181,12.40538A11.7592,11.7592,0,1,0,66.489,102.79373V92.71245A28.75573,28.75573,0,0,0,87.91369,80.13779l8.72684,4.956a11.75411,11.75411,0,1,0,17.66927-5.98714ZM104.15148,32.77876a7.31361,7.31361,0,1,1-1.339,11.72816,6.83309,6.83309,0,0,1-1.40057-1.75463,7.42678,7.42678,0,0,1-.80038-2.09319A7.3118,7.3118,0,0,1,104.15148,32.77876Zm-76.741,7.88033A7.1445,7.1445,0,0,1,25.225,44.50692a7.31642,7.31642,0,1,1,2.18554-3.84782Zm-3.54,54.57755A7.32031,7.32031,0,1,1,25.225,83.49308a7.47975,7.47975,0,0,1,1.40057,1.75463,6.87782,6.87782,0,0,1,.785,2.1086A7.30916,7.30916,0,0,1,23.87055,95.23665ZM56.94642,13.67821A7.31857,7.31857,0,1,1,66.489,20.65041a7.09777,7.09777,0,0,1-2.21635.33866,6.96119,6.96119,0,0,1-2.21635-.33866A7.33287,7.33287,0,0,1,56.94642,13.67821Zm14.63713,100.659a7.31857,7.31857,0,1,1-9.52721-6.98761,7.42214,7.42214,0,0,1,2.21635-.33866,7.578,7.578,0,0,1,2.21635.33866A7.35292,7.35292,0,0,1,71.58355,114.3372ZM83.00386,64.00775a18.95394,18.95394,0,0,1-1.15435,6.55661c1.16975.785,2.35491,1.56994,3.50926,2.38573l-2.909,5.04829q-1.93936-.90042-3.83242-1.847a18.93642,18.93642,0,0,1-11.38959,6.57211c-.07694,1.416-.18469,2.832-.30784,4.248H61.08668c-.12316-1.416-.2155-2.832-.30784-4.248a18.93619,18.93619,0,0,1-11.3895-6.57211q-1.89315.94664-3.83251,1.847l-2.90888-5.04829c1.16975-.80038,2.33941-1.60075,3.50917-2.38573a19.198,19.198,0,0,1,0-13.11332c-1.16975-.785-2.33941-1.58535-3.50917-2.38573l2.90888-5.0637q1.93936.92353,3.83251,1.847a19.01181,19.01181,0,0,1,11.3895-6.57211c.09234-1.416.18469-2.83194.30784-4.248h5.83327c.12316,1.41607.23091,2.832.30784,4.248A18.957,18.957,0,0,1,78.61738,51.864c1.2621-.6311,2.53951-1.24669,3.83242-1.86238l2.909,5.0637c-1.15435.80038-2.33951,1.60075-3.50926,2.38573A18.89038,18.89038,0,0,1,83.00386,64.00775Zm31.13665,28.47389a7.32031,7.32031,0,1,1-12.72863-7.23393,7.12423,7.12423,0,0,1,1.38516-1.75463,7.32468,7.32468,0,0,1,11.34347,8.98856Z"
     id="path20" />
  <circle
     class="cls-1"
     cx="107.77699"
     cy="88.87156"
     r="3.97084"
     transform="translate(-22.73709 138.67223) rotate(-60.39408)"
     id="circle22"
     style="fill:#ff7f2a" />
</svg>
